<mxfile host="65bd71144e">
    <diagram id="NXFrA5UINfvCZD1CqPeP" name="Page-1">
        <mxGraphModel dx="608" dy="686" grid="1" gridSize="10" guides="1" tooltips="1" connect="1" arrows="1" fold="1" page="1" pageScale="1" pageWidth="850" pageHeight="1100" math="0" shadow="0">
            <root>
                <mxCell id="0"/>
                <mxCell id="1" parent="0"/>
                <mxCell id="33" value="App" style="rounded=0;whiteSpace=wrap;html=1;verticalAlign=top;" parent="1" vertex="1">
                    <mxGeometry x="20" width="590" height="580" as="geometry"/>
                </mxCell>
                <mxCell id="14" value="" style="rounded=0;whiteSpace=wrap;html=1;strokeColor=#1F1F1F;fillColor=#FFFFFF;" parent="1" vertex="1">
                    <mxGeometry x="730" y="77" width="790" height="890" as="geometry"/>
                </mxCell>
                <mxCell id="2" value="HEADER" style="rounded=0;whiteSpace=wrap;html=1;" parent="1" vertex="1">
                    <mxGeometry x="50" y="30" width="530" height="60" as="geometry"/>
                </mxCell>
                <mxCell id="3" value="DisplayPane" style="rounded=0;whiteSpace=wrap;html=1;verticalAlign=top;" parent="1" vertex="1">
                    <mxGeometry x="170" y="100" width="410" height="450" as="geometry"/>
                </mxCell>
                <mxCell id="4" value="NewPostArea" style="rounded=0;whiteSpace=wrap;html=1;verticalAlign=top;" parent="1" vertex="1">
                    <mxGeometry x="190" y="130" width="370" height="180" as="geometry"/>
                </mxCell>
                <mxCell id="5" value="Post" style="rounded=0;whiteSpace=wrap;html=1;verticalAlign=top;" parent="1" vertex="1">
                    <mxGeometry x="190" y="325" width="370" height="205" as="geometry"/>
                </mxCell>
                <mxCell id="8" value="DISCUSSION FORUM" style="rounded=0;whiteSpace=wrap;html=1;fillColor=#647687;fontColor=#ffffff;strokeColor=#314354;" parent="1" vertex="1">
                    <mxGeometry x="730" y="80" width="790" height="70" as="geometry"/>
                </mxCell>
                <mxCell id="9" value="" style="rounded=0;whiteSpace=wrap;html=1;fillColor=none;fontColor=#ffffff;strokeColor=#314354;" parent="1" vertex="1">
                    <mxGeometry x="890" y="300" width="610" height="150" as="geometry"/>
                </mxCell>
                <mxCell id="10" value="" style="line;strokeWidth=2;html=1;strokeColor=#1F1F1F;" parent="1" vertex="1">
                    <mxGeometry x="730" y="147" width="790" height="10" as="geometry"/>
                </mxCell>
                <mxCell id="11" value="" style="line;strokeWidth=2;html=1;strokeColor=#1F1F1F;rotation=-90;" parent="1" vertex="1">
                    <mxGeometry x="460" y="557" width="820" height="10" as="geometry"/>
                </mxCell>
                <mxCell id="12" value="" style="rounded=0;whiteSpace=wrap;html=1;fillColor=none;fontColor=#ffffff;strokeColor=#314354;" parent="1" vertex="1">
                    <mxGeometry x="890" y="470" width="610" height="80" as="geometry"/>
                </mxCell>
                <mxCell id="15" value="&lt;font color=&quot;#121212&quot;&gt;POST&lt;/font&gt;" style="shape=ext;double=1;rounded=1;whiteSpace=wrap;html=1;strokeColor=#1F1F1F;fillColor=#FFFFFF;" parent="1" vertex="1">
                    <mxGeometry x="890" y="170" width="80" height="40" as="geometry"/>
                </mxCell>
                <mxCell id="17" value="" style="rounded=0;whiteSpace=wrap;html=1;fontColor=#121212;strokeColor=#1F1F1F;fillColor=#FFFFFF;" parent="1" vertex="1">
                    <mxGeometry x="980" y="200" width="420" height="90" as="geometry"/>
                </mxCell>
                <mxCell id="18" value="&lt;font color=&quot;#121212&quot;&gt;SUBMIT&lt;br&gt;&lt;/font&gt;" style="shape=ext;double=1;rounded=1;whiteSpace=wrap;html=1;strokeColor=#1F1F1F;fillColor=#FFFFFF;" parent="1" vertex="1">
                    <mxGeometry x="1410" y="250" width="80" height="40" as="geometry"/>
                </mxCell>
                <mxCell id="19" value="&lt;font style=&quot;font-size: 16px&quot;&gt;Today I ate a peach pie - &lt;i style=&quot;font-weight: normal&quot;&gt;posted 6/30/2022 08:15:37&lt;/i&gt;&lt;/font&gt;" style="text;strokeColor=none;fillColor=none;html=1;fontSize=24;fontStyle=1;verticalAlign=middle;align=center;fontColor=#121212;" parent="1" vertex="1">
                    <mxGeometry x="980" y="300" width="380" height="40" as="geometry"/>
                </mxCell>
                <mxCell id="21" value="Lorem ipsum pie peaches lorem ipsum etc..." style="text;html=1;strokeColor=none;fillColor=none;align=left;verticalAlign=middle;whiteSpace=wrap;rounded=0;fontSize=16;fontColor=#121212;" parent="1" vertex="1">
                    <mxGeometry x="920" y="350" width="550" height="100" as="geometry"/>
                </mxCell>
                <mxCell id="24" value="" style="shape=offPageConnector;whiteSpace=wrap;html=1;fontSize=16;fontColor=#121212;strokeColor=#1F1F1F;fillColor=#33FF33;rotation=-180;size=1;" parent="1" vertex="1">
                    <mxGeometry x="900" y="305" width="30" height="20" as="geometry"/>
                </mxCell>
                <mxCell id="25" value="-39" style="text;strokeColor=none;fillColor=none;html=1;fontSize=24;fontStyle=1;verticalAlign=middle;align=center;fontColor=#121212;" parent="1" vertex="1">
                    <mxGeometry x="930" y="305" width="40" height="40" as="geometry"/>
                </mxCell>
                <mxCell id="28" value="" style="shape=offPageConnector;whiteSpace=wrap;html=1;fontSize=16;fontColor=#121212;strokeColor=#1F1F1F;fillColor=#FF0000;rotation=0;size=1;" parent="1" vertex="1">
                    <mxGeometry x="900" y="325" width="30" height="20" as="geometry"/>
                </mxCell>
                <mxCell id="6aiA94d-WOz0YKa8GJ7o-29" value="Sort" style="text;strokeColor=none;fillColor=none;html=1;fontSize=24;fontStyle=1;verticalAlign=middle;align=center;fontColor=#121212;" parent="1" vertex="1">
                    <mxGeometry x="750" y="157" width="50" height="40" as="geometry"/>
                </mxCell>
                <mxCell id="6aiA94d-WOz0YKa8GJ7o-30" value="Popular" style="text;html=1;strokeColor=none;fillColor=none;align=left;verticalAlign=middle;whiteSpace=wrap;rounded=0;fontSize=16;fontColor=#121212;" parent="1" vertex="1">
                    <mxGeometry x="750" y="197" width="60" height="30" as="geometry"/>
                </mxCell>
                <mxCell id="6aiA94d-WOz0YKa8GJ7o-31" value="Hated" style="text;html=1;strokeColor=none;fillColor=none;align=left;verticalAlign=middle;whiteSpace=wrap;rounded=0;fontSize=16;fontColor=#121212;" parent="1" vertex="1">
                    <mxGeometry x="750" y="227" width="60" height="30" as="geometry"/>
                </mxCell>
                <mxCell id="6aiA94d-WOz0YKa8GJ7o-32" value="Newest" style="text;html=1;strokeColor=none;fillColor=none;align=left;verticalAlign=middle;whiteSpace=wrap;rounded=0;fontSize=16;fontColor=#121212;" parent="1" vertex="1">
                    <mxGeometry x="750" y="257" width="100" height="30" as="geometry"/>
                </mxCell>
                <mxCell id="6aiA94d-WOz0YKa8GJ7o-33" value="Oldest" style="text;html=1;strokeColor=none;fillColor=none;align=left;verticalAlign=middle;whiteSpace=wrap;rounded=0;fontSize=16;fontColor=#121212;" parent="1" vertex="1">
                    <mxGeometry x="750" y="287" width="100" height="30" as="geometry"/>
                </mxCell>
                <mxCell id="6aiA94d-WOz0YKa8GJ7o-34" value="&lt;font face=&quot;Courier New&quot;&gt;&lt;b&gt;store = {&lt;br&gt;&amp;nbsp; posts: {&lt;br&gt;&amp;nbsp; &amp;nbsp; {id = v4()&lt;br&gt;&amp;nbsp; &amp;nbsp; &amp;nbsp;title: string&lt;br&gt;&amp;nbsp; &amp;nbsp; &amp;nbsp;timestamp: Date object&lt;br&gt;&amp;nbsp; &amp;nbsp; &amp;nbsp;votes: int&lt;br&gt;&amp;nbsp; &amp;nbsp; &amp;nbsp;content: string&lt;br&gt;&amp;nbsp; &amp;nbsp; },&lt;br&gt;&lt;/b&gt;&lt;/font&gt;&lt;b style=&quot;font-family: &amp;#34;courier new&amp;#34;&quot;&gt;&amp;nbsp; &amp;nbsp; {&lt;/b&gt;&lt;b style=&quot;font-family: &amp;#34;courier new&amp;#34;&quot;&gt;id = v4()&lt;/b&gt;&lt;b style=&quot;font-family: &amp;#34;courier new&amp;#34;&quot;&gt;&lt;br&gt;&amp;nbsp; &amp;nbsp; &amp;nbsp;title: string&lt;br&gt;&amp;nbsp; &amp;nbsp; &amp;nbsp;timestamp: Date object&lt;br&gt;&amp;nbsp; &amp;nbsp; &amp;nbsp;votes: int&lt;br&gt;&amp;nbsp; &amp;nbsp; &amp;nbsp;content: string&lt;br&gt;&lt;/b&gt;&lt;font face=&quot;Courier New&quot;&gt;&lt;b&gt;&amp;nbsp; &amp;nbsp; }&lt;br&gt;&amp;nbsp; },&lt;br&gt;&amp;nbsp;sortMethod: string&lt;br&gt;}&lt;br&gt;&lt;br&gt;state(NewPostArea) = {&lt;br&gt;&amp;nbsp; isPosting: true&lt;br&gt;}&lt;br&gt;&lt;br&gt;state(Post) = {&lt;br&gt;&amp;nbsp; detailMode: true&lt;br&gt;}&lt;br&gt;&lt;/b&gt;&lt;/font&gt;" style="rounded=0;whiteSpace=wrap;html=1;fontSize=16;fontColor=#121212;strokeColor=#0F0F0F;fillColor=#808080;align=left;" parent="1" vertex="1">
                    <mxGeometry x="320" y="540" width="340" height="600" as="geometry"/>
                </mxCell>
                <mxCell id="6aiA94d-WOz0YKa8GJ7o-36" value="" style="rounded=0;whiteSpace=wrap;html=1;fontColor=#121212;strokeColor=#1F1F1F;fillColor=#FFFFFF;" parent="1" vertex="1">
                    <mxGeometry x="980" y="162" width="420" height="30" as="geometry"/>
                </mxCell>
                <mxCell id="6aiA94d-WOz0YKa8GJ7o-37" value="&lt;font style=&quot;font-size: 16px&quot;&gt;I got all these peaches - &lt;i style=&quot;font-weight: normal&quot;&gt;posted 6/28/2022 11:30:02&lt;/i&gt;&lt;/font&gt;" style="text;strokeColor=none;fillColor=none;html=1;fontSize=24;fontStyle=1;verticalAlign=middle;align=center;fontColor=#121212;" parent="1" vertex="1">
                    <mxGeometry x="990" y="487" width="380" height="40" as="geometry"/>
                </mxCell>
                <mxCell id="6aiA94d-WOz0YKa8GJ7o-38" value="+12" style="text;strokeColor=none;fillColor=none;html=1;fontSize=24;fontStyle=1;verticalAlign=middle;align=center;fontColor=#121212;" parent="1" vertex="1">
                    <mxGeometry x="940" y="492" width="40" height="40" as="geometry"/>
                </mxCell>
                <mxCell id="6aiA94d-WOz0YKa8GJ7o-39" value="" style="shape=offPageConnector;whiteSpace=wrap;html=1;fontSize=16;fontColor=#121212;strokeColor=#1F1F1F;fillColor=#33FF33;rotation=-180;size=1;" parent="1" vertex="1">
                    <mxGeometry x="910" y="492" width="30" height="20" as="geometry"/>
                </mxCell>
                <mxCell id="6aiA94d-WOz0YKa8GJ7o-41" value="" style="shape=offPageConnector;whiteSpace=wrap;html=1;fontSize=16;fontColor=#121212;strokeColor=#1F1F1F;fillColor=#FF0000;rotation=0;size=1;" parent="1" vertex="1">
                    <mxGeometry x="910" y="512" width="30" height="20" as="geometry"/>
                </mxCell>
                <mxCell id="6aiA94d-WOz0YKa8GJ7o-43" value="&lt;font color=&quot;#121212&quot;&gt;READ&lt;/font&gt;" style="shape=ext;double=1;rounded=1;whiteSpace=wrap;html=1;strokeColor=#1F1F1F;fillColor=#FFFFFF;" parent="1" vertex="1">
                    <mxGeometry x="1400" y="492" width="80" height="40" as="geometry"/>
                </mxCell>
                <mxCell id="6aiA94d-WOz0YKa8GJ7o-44" value="&lt;font color=&quot;#121212&quot;&gt;HIDE&lt;/font&gt;" style="shape=ext;double=1;rounded=1;whiteSpace=wrap;html=1;strokeColor=#1F1F1F;fillColor=#FFFFFF;" parent="1" vertex="1">
                    <mxGeometry x="1400" y="310" width="80" height="40" as="geometry"/>
                </mxCell>
                <mxCell id="6aiA94d-WOz0YKa8GJ7o-45" value="" style="rounded=0;whiteSpace=wrap;html=1;fillColor=none;fontColor=#ffffff;strokeColor=#314354;" parent="1" vertex="1">
                    <mxGeometry x="890" y="557" width="610" height="80" as="geometry"/>
                </mxCell>
                <mxCell id="6aiA94d-WOz0YKa8GJ7o-46" value="&lt;font style=&quot;font-size: 16px&quot;&gt;How long to ripen? - &lt;i style=&quot;font-weight: normal&quot;&gt;posted 5/22/2022 10:11:15&lt;/i&gt;&lt;/font&gt;" style="text;strokeColor=none;fillColor=none;html=1;fontSize=24;fontStyle=1;verticalAlign=middle;align=center;fontColor=#121212;" parent="1" vertex="1">
                    <mxGeometry x="990" y="574" width="380" height="40" as="geometry"/>
                </mxCell>
                <mxCell id="6aiA94d-WOz0YKa8GJ7o-47" value="+5" style="text;strokeColor=none;fillColor=none;html=1;fontSize=24;fontStyle=1;verticalAlign=middle;align=center;fontColor=#121212;" parent="1" vertex="1">
                    <mxGeometry x="940" y="579" width="40" height="40" as="geometry"/>
                </mxCell>
                <mxCell id="6aiA94d-WOz0YKa8GJ7o-48" value="" style="shape=offPageConnector;whiteSpace=wrap;html=1;fontSize=16;fontColor=#121212;strokeColor=#1F1F1F;fillColor=#33FF33;rotation=-180;size=1;" parent="1" vertex="1">
                    <mxGeometry x="910" y="579" width="30" height="20" as="geometry"/>
                </mxCell>
                <mxCell id="6aiA94d-WOz0YKa8GJ7o-49" value="" style="shape=offPageConnector;whiteSpace=wrap;html=1;fontSize=16;fontColor=#121212;strokeColor=#1F1F1F;fillColor=#FF0000;rotation=0;size=1;" parent="1" vertex="1">
                    <mxGeometry x="910" y="599" width="30" height="20" as="geometry"/>
                </mxCell>
                <mxCell id="6aiA94d-WOz0YKa8GJ7o-50" value="&lt;font color=&quot;#121212&quot;&gt;READ&lt;/font&gt;" style="shape=ext;double=1;rounded=1;whiteSpace=wrap;html=1;strokeColor=#1F1F1F;fillColor=#FFFFFF;" parent="1" vertex="1">
                    <mxGeometry x="1400" y="579" width="80" height="40" as="geometry"/>
                </mxCell>
                <mxCell id="6aiA94d-WOz0YKa8GJ7o-51" value="" style="rounded=0;whiteSpace=wrap;html=1;fillColor=none;fontColor=#ffffff;strokeColor=#314354;" parent="1" vertex="1">
                    <mxGeometry x="890" y="650" width="610" height="80" as="geometry"/>
                </mxCell>
                <mxCell id="6aiA94d-WOz0YKa8GJ7o-52" value="&lt;font style=&quot;font-size: 16px&quot;&gt;Today I ate a peach pie - &lt;i style=&quot;font-weight: normal&quot;&gt;posted 6/30/2022 08:15:37&lt;/i&gt;&lt;/font&gt;" style="text;strokeColor=none;fillColor=none;html=1;fontSize=24;fontStyle=1;verticalAlign=middle;align=center;fontColor=#121212;" parent="1" vertex="1">
                    <mxGeometry x="990" y="667" width="380" height="40" as="geometry"/>
                </mxCell>
                <mxCell id="6aiA94d-WOz0YKa8GJ7o-53" value="-39" style="text;strokeColor=none;fillColor=none;html=1;fontSize=24;fontStyle=1;verticalAlign=middle;align=center;fontColor=#121212;" parent="1" vertex="1">
                    <mxGeometry x="940" y="672" width="40" height="40" as="geometry"/>
                </mxCell>
                <mxCell id="6aiA94d-WOz0YKa8GJ7o-54" value="" style="shape=offPageConnector;whiteSpace=wrap;html=1;fontSize=16;fontColor=#121212;strokeColor=#1F1F1F;fillColor=#33FF33;rotation=-180;size=1;" parent="1" vertex="1">
                    <mxGeometry x="910" y="672" width="30" height="20" as="geometry"/>
                </mxCell>
                <mxCell id="6aiA94d-WOz0YKa8GJ7o-55" value="" style="shape=offPageConnector;whiteSpace=wrap;html=1;fontSize=16;fontColor=#121212;strokeColor=#1F1F1F;fillColor=#FF0000;rotation=0;size=1;" parent="1" vertex="1">
                    <mxGeometry x="910" y="692" width="30" height="20" as="geometry"/>
                </mxCell>
                <mxCell id="6aiA94d-WOz0YKa8GJ7o-56" value="&lt;font color=&quot;#121212&quot;&gt;READ&lt;/font&gt;" style="shape=ext;double=1;rounded=1;whiteSpace=wrap;html=1;strokeColor=#1F1F1F;fillColor=#FFFFFF;" parent="1" vertex="1">
                    <mxGeometry x="1400" y="672" width="80" height="40" as="geometry"/>
                </mxCell>
                <mxCell id="6aiA94d-WOz0YKa8GJ7o-57" value="" style="rounded=0;whiteSpace=wrap;html=1;fillColor=none;fontColor=#ffffff;strokeColor=#314354;" parent="1" vertex="1">
                    <mxGeometry x="890" y="740" width="610" height="80" as="geometry"/>
                </mxCell>
                <mxCell id="6aiA94d-WOz0YKa8GJ7o-58" value="&lt;font style=&quot;font-size: 16px&quot;&gt;Today I ate a peach pie - &lt;i style=&quot;font-weight: normal&quot;&gt;posted 6/30/2022 08:15:37&lt;/i&gt;&lt;/font&gt;" style="text;strokeColor=none;fillColor=none;html=1;fontSize=24;fontStyle=1;verticalAlign=middle;align=center;fontColor=#121212;" parent="1" vertex="1">
                    <mxGeometry x="990" y="757" width="380" height="40" as="geometry"/>
                </mxCell>
                <mxCell id="6aiA94d-WOz0YKa8GJ7o-59" value="-39" style="text;strokeColor=none;fillColor=none;html=1;fontSize=24;fontStyle=1;verticalAlign=middle;align=center;fontColor=#121212;" parent="1" vertex="1">
                    <mxGeometry x="940" y="762" width="40" height="40" as="geometry"/>
                </mxCell>
                <mxCell id="6aiA94d-WOz0YKa8GJ7o-60" value="" style="shape=offPageConnector;whiteSpace=wrap;html=1;fontSize=16;fontColor=#121212;strokeColor=#1F1F1F;fillColor=#33FF33;rotation=-180;size=1;" parent="1" vertex="1">
                    <mxGeometry x="910" y="762" width="30" height="20" as="geometry"/>
                </mxCell>
                <mxCell id="6aiA94d-WOz0YKa8GJ7o-61" value="" style="shape=offPageConnector;whiteSpace=wrap;html=1;fontSize=16;fontColor=#121212;strokeColor=#1F1F1F;fillColor=#FF0000;rotation=0;size=1;" parent="1" vertex="1">
                    <mxGeometry x="910" y="782" width="30" height="20" as="geometry"/>
                </mxCell>
                <mxCell id="6aiA94d-WOz0YKa8GJ7o-62" value="&lt;font color=&quot;#121212&quot;&gt;READ&lt;/font&gt;" style="shape=ext;double=1;rounded=1;whiteSpace=wrap;html=1;strokeColor=#1F1F1F;fillColor=#FFFFFF;" parent="1" vertex="1">
                    <mxGeometry x="1400" y="762" width="80" height="40" as="geometry"/>
                </mxCell>
                <mxCell id="29" value="NewPostForm" style="rounded=0;whiteSpace=wrap;html=1;" parent="1" vertex="1">
                    <mxGeometry x="200" y="240" width="350" height="60" as="geometry"/>
                </mxCell>
                <mxCell id="30" value="PostButton" style="rounded=0;whiteSpace=wrap;html=1;" parent="1" vertex="1">
                    <mxGeometry x="200" y="162" width="350" height="60" as="geometry"/>
                </mxCell>
                <mxCell id="31" value="ReadHideButton" style="rounded=0;whiteSpace=wrap;html=1;" parent="1" vertex="1">
                    <mxGeometry x="200" y="356.5" width="350" height="60" as="geometry"/>
                </mxCell>
                <mxCell id="32" value="SortBar" style="rounded=0;whiteSpace=wrap;html=1;verticalAlign=top;" parent="1" vertex="1">
                    <mxGeometry x="50" y="100" width="110" height="380" as="geometry"/>
                </mxCell>
                <mxCell id="34" value="SortMethodButton" style="rounded=0;whiteSpace=wrap;html=1;fontSize=10;" parent="1" vertex="1">
                    <mxGeometry x="60" y="130" width="90" height="60" as="geometry"/>
                </mxCell>
                <mxCell id="35" value="SortMethodButton" style="rounded=0;whiteSpace=wrap;html=1;fontSize=10;" parent="1" vertex="1">
                    <mxGeometry x="60" y="200" width="90" height="60" as="geometry"/>
                </mxCell>
                <mxCell id="36" value="SortMethodButton" style="rounded=0;whiteSpace=wrap;html=1;fontSize=10;" parent="1" vertex="1">
                    <mxGeometry x="60" y="270" width="90" height="60" as="geometry"/>
                </mxCell>
                <mxCell id="37" value="SortMethodButton" style="rounded=0;whiteSpace=wrap;html=1;fontSize=10;" parent="1" vertex="1">
                    <mxGeometry x="60" y="340" width="90" height="60" as="geometry"/>
                </mxCell>
                <mxCell id="38" value="Actor" style="shape=umlActor;verticalLabelPosition=bottom;verticalAlign=top;html=1;outlineConnect=0;fontSize=10;" parent="1" vertex="1">
                    <mxGeometry x="750" y="85" width="30" height="60" as="geometry"/>
                </mxCell>
                <mxCell id="39" value="UpDownVoteButtons" style="rounded=0;whiteSpace=wrap;html=1;" parent="1" vertex="1">
                    <mxGeometry x="200" y="440" width="350" height="60" as="geometry"/>
                </mxCell>
            </root>
        </mxGraphModel>
    </diagram>
</mxfile>